<svg xmlns="http://www.w3.org/2000/svg" viewBox="0 0 160 24.01"><defs><style>.cls-1{fill:#c19f6e;}.cls-2{fill:#b40019;}.cls-3{fill:#1a1311;}.cls-4{fill:#767676;}</style></defs><g id="Layer_2" data-name="Layer 2"><g id="Layer_1-2" data-name="Layer 1"><g id="ベクトルスマートオブジェクト_のコピー_13" data-name="ベクトルスマートオブジェクト のコピー 13"><path id="Path_1" data-name="Path 1" class="cls-1" d="M8.42,24c-1.18,0-1.21-.25-.07-.56L54.58,11c1.15-.31,1.21-.14.14.38L30.38,23.07a11.3,11.3,0,0,1-4.1.93Z"/><path id="Path_2" data-name="Path 2" class="cls-2" d="M37.21,5.31a8.79,8.79,0,0,1,4.14-.16L54.58,8.44c1.15.29,1.12.46-.06.38l-21-1.42c-1.19-.08-1.23-.45-.1-.83Z"/><path id="Path_3" data-name="Path 3" class="cls-2" d="M.9,17.82c-1.17.18-1.21,0-.08-.35L20.18,11a13.87,13.87,0,0,1,4.2-.56l15.27.86c1.18.07,1.19.27,0,.45Z"/><path id="Path_4" data-name="Path 4" class="cls-3" d="M84.78,16.21c-2.89,0-5.3-1.48-5.82-3.42h13.3V12c0-3.18-3.35-5.76-7.47-5.76S77.31,8.82,77.31,12s3.35,5.78,7.48,5.78Zm0-8.41c2.89,0,5.3,1.48,5.83,3.42H79c.51-2,2.93-3.43,5.81-3.43Z"/><path id="Path_5" data-name="Path 5" class="cls-3" d="M110.62,6.23c-4.12,0-7.48,2.59-7.48,5.77s3.36,5.77,7.48,5.77,7.47-2.59,7.47-5.77S114.74,6.23,110.62,6.23Zm0,10c-3.27,0-5.93-1.89-5.93-4.2s2.66-4.21,5.93-4.21,5.92,1.89,5.92,4.21S113.88,16.21,110.62,16.21Z"/><path id="Path_6" data-name="Path 6" class="cls-3" d="M120.2,12.11v5h1.55v-5c0-2.32,2.66-4.21,5.93-4.21V6.34C123.55,6.34,120.2,8.93,120.2,12.11Z"/><path id="Path_7" data-name="Path 7" class="cls-3" d="M160,12.78V12c0-3.18-3.35-5.77-7.47-5.77s-7.48,2.59-7.48,5.77a5.23,5.23,0,0,0,2.28,4.16,8.79,8.79,0,0,0,5.2,1.61h0V16.21h0a7.16,7.16,0,0,1-4.27-1.31,3.66,3.66,0,0,1-1.65-2.9c0-2.32,2.66-4.21,5.92-4.21s5.92,1.89,5.92,4.21v.78h0v5H160Z"/><path id="Path_8" data-name="Path 8" class="cls-3" d="M135.68,6.23c-4.12,0-7.48,2.59-7.48,5.77v5.1h1.55V12c0-2.13,2.25-3.9,5.15-4.17V17h1.55V7.83c2.9.27,5.15,2,5.15,4.17v4.88h1.55V12C143.15,8.82,139.8,6.23,135.68,6.23Z"/><path id="Path_9" data-name="Path 9" class="cls-4" d="M152.32,20.56h0a3.05,3.05,0,0,1,2.08.64l.07.07.41-.39-.06-.07a3.51,3.51,0,0,0-2.49-.82h-.05c-1.33,0-2.18.47-2.18,1.15,0,.9,1.35,1,2.33,1.14.55,0,1.82.19,1.82.57,0,.23-.5.56-1.61.58h0a3,3,0,0,1-2.09-.65l-.07-.07-.41.39.06.07a3.51,3.51,0,0,0,2.48.83h.07c1.32,0,2.17-.47,2.17-1.15,0-.9-1.34-1-2.33-1.14-.54-.06-1.82-.19-1.82-.57S151.21,20.57,152.32,20.56Z"/><path id="Path_10" data-name="Path 10" class="cls-4" d="M158.28,20.67a.83.83,0,0,0-1.1-.44.82.82,0,0,0-.44.42l-1.82,3,.49.3,1.82-3a.38.38,0,0,1,.28-.22c.1,0,.2.09.29.23l1.71,2.94.49-.29Z"/><path id="Path_11" data-name="Path 11" class="cls-4" d="M147.45,20c-1.35,0-2.4.67-2.4,1.54V24h.57V21.51c0-.52.85-1,1.83-1s1.82.45,1.82,1-.85,1-1.82,1a2.75,2.75,0,0,1-1.35-.33l-.08-.05-.29.5.08,0a3.14,3.14,0,0,0,1.64.4c1.34,0,2.39-.67,2.39-1.53S148.78,20,147.45,20Z"/><path id="Path_12" data-name="Path 12" class="cls-3" d="M109,1.56V0C101.48,0,96.62,4.09,95,11.84c-1.87,8.76-7.86,10.6-12.55,10.6H81.29V24h1.13c7.24,0,12.16-4,13.92-11.22h4.4V11.22h-4C98.38,4.81,102.52,1.56,109,1.56Z"/><path id="Path_13" data-name="Path 13" class="cls-3" d="M73.46,21.3A34.08,34.08,0,0,1,70,18.42l-.76-.67h0c3.47-.62,6-2.93,6-5.67,0-3.22-3.56-5.84-7.92-5.84s-7.92,2.62-7.92,5.84v5.7H61v-5.7c0-2.06,2.19-3.79,5.09-4.19a9.32,9.32,0,0,1,1.29-.09c3.51,0,6.37,1.92,6.37,4.28S71,16.23,67.64,16.33H65.3l2.8,2.45h0l.89.79a32.42,32.42,0,0,0,3.65,3A8.83,8.83,0,0,0,77.73,24V22.5A7.51,7.51,0,0,1,73.46,21.3Z"/></g></g></g></svg>